<svg version="1.1" xmlns="http://www.w3.org/2000/svg" xmlns:xlink="http://www.w3.org/1999/xlink" width="32" height="48" viewBox="0,0,170.65625,256"><g fill="#27e41d" fill-rule="evenodd" stroke="none" stroke-width="1" stroke-linecap="butt" stroke-linejoin="miter" stroke-miterlimit="10" stroke-dasharray="" stroke-dashoffset="0" font-family="none" font-weight="none" font-size="none" text-anchor="none" style="mix-blend-mode: normal"><g transform="translate(2.43319,0) scale(5.33333,5.33333)"><path d="M23.3958,23.6529c-0.0434,0.2782 -0.1492,0.543 -0.3095,0.7746c-0.1603,0.2315 -0.3709,0.4237 -0.616,0.5623c-0.4937,0.3188 -0.9256,0.4782 -1.3626,0.6376c-0.9307,0.3214 -1.9103,0.6428 -2.9464,1.0156c-1.0926,0.3727 -2.0722,0.7455 -2.9463,1.0155c-1.0901,0.3728 -2.1262,0.6941 -3.1109,1.0669c-0.7408,0.3171 -1.4367,0.7302 -2.0696,1.229c-0.58866,0.5333 -1.10238,1.1439 -1.52716,1.8151c-0.43707,0.7455 -0.71216,1.7071 -0.71216,2.828c0,2.2445 0.54504,3.9516 1.63771,5.0186c1.09011,1.1235 3.11091,1.6557 6.10601,1.6557c3.0544,0 5.1266,-0.5862 6.2218,-1.7611c1.0875,-1.175 1.6325,-2.8281 1.6325,-4.962v-10.8958zM15.5415,0c5.3476,0 9.2735,1.01553 11.7802,3.09802c2.5093,2.03106 3.7639,4.64317 3.7639,7.73858v26.3782c0,1.0669 -0.216,2.2419 -0.5965,3.5222c-0.3856,1.2855 -1.1466,2.4579 -2.3473,3.5222c-1.1441,1.0721 -2.7252,1.9797 -4.7434,2.6738c-2.0182,0.6942 -4.6355,1.067 -7.8543,1.067c-3.2137,0 -5.83612,-0.3728 -7.85176,-1.067c-2.01564,-0.6941 -3.59936,-1.6017 -4.74344,-2.6738c-1.0643,-0.9591 -1.87056,-2.1702 -2.34472,-3.5222c-0.38565,-1.2778 -0.60418,-2.4527 -0.60418,-3.5196v-4.2164c0,-2.2445 0.59904,-4.327 1.79968,-6.1447c1.20064,-1.8665 2.88977,-3.1468 5.07252,-3.949c1.09009,-0.3728 2.34473,-0.7455 3.7613,-1.2263c1.4192,-0.4834 2.7253,-0.9641 4.0364,-1.3883c1.3112,-0.4294 2.4553,-0.8587 3.4349,-1.2341c0.5911,-0.2365 1.1915,-0.4492 1.7996,-0.6376l0.9822,-0.4808c0.3856,-0.2134 0.7635,-0.5347 1.1466,-0.9615c0.3805,-0.4242 0.707,-0.905 0.9821,-1.4398c0.2907,-0.579 0.4404,-1.2186 0.4371,-1.8665v-1.7097c0.004,-0.6266 -0.1275,-1.2467 -0.3857,-1.8177c-0.2159,-0.6427 -0.653,-1.22888 -1.252,-1.76107c-0.5991,-0.53476 -1.4192,-0.96154 -2.3987,-1.28548c-0.9822,-0.31623 -2.2882,-0.4782 -3.7639,-0.4782c-3.0544,0 -5.0726,0.59132 -6.16265,1.8151c-0.92555,1.06953 -1.4706,2.40385 -1.57858,3.89755c0,0.3214 -0.27252,0.5348 -0.6016,0.5348l-6.6511,0.108c-0.15799,0.0007 -0.30986,-0.0611 -0.42254,-0.1718c-0.11268,-0.1108 -0.17704,-0.2616 -0.17907,-0.4195v-1.5426c0,-1.4989 0.27509,-2.88722 0.87413,-4.22155c0.60161,-1.33691 1.52973,-2.45528 2.78179,-3.41939c1.25463,-0.95897 2.89234,-1.75855 4.85399,-2.29331c1.91023,-0.64274 4.25493,-0.90755 6.98013,-0.90755z"></path></g></g></svg>